<svg id="Text" xmlns="http://www.w3.org/2000/svg" viewBox="0 0 88.51 116.7"><defs><style>.cls-1{fill:#1f2937;}.cls-2{fill:#302f81;}.cls-3{fill:#4d4ea1;}.cls-4{fill:#3e3b97;}.cls-5{fill:#6067af;}.cls-6{fill:#8087c2;}.cls-7{fill:#fff;}</style></defs><rect class="cls-1" x="1.2" y="34.13" width="85.78" height="14.29"/><polygon class="cls-2" points="64.92 65.93 69.11 73.63 43.85 88.17 16.26 71.28 19.61 65.93 64.92 65.93"/><polygon class="cls-3" points="1.2 48.42 21.1 96.28 35.63 115.11 35.63 76.38 38.85 48.42 1.2 48.42"/><polygon class="cls-4" points="39.66 55.41 44.5 72.08 70.85 99.51 86.99 60.25 86.99 48.42 39.66 48.42 39.66 55.41"/><polygon class="cls-5" points="58.48 48.37 40.57 73.38 23.63 43.37 34.93 39.5 58.48 48.37"/><path class="cls-3" d="M1.2,44.21H21l-1.48-3,15.31-5.62L59.59,45H87V11.68a7.8,7.8,0,0,0-7.65-7.95H8.85a7.81,7.81,0,0,0-7.65,8Z"/><g id="Face"><rect class="cls-1" x="11.29" y="8.84" width="65.62" height="23.75" rx="1.15"/><path class="cls-6" d="M35.37,27.62h0a3.09,3.09,0,0,1-3.1-3.09v-8.8a3.1,3.1,0,0,1,3.1-3.09h0a3.1,3.1,0,0,1,3.09,3.09v8.8A3.09,3.09,0,0,1,35.37,27.62Z"/><path class="cls-7" d="M35.37,21.6h0a1.54,1.54,0,0,1-1.55-1.55V15.66a1.54,1.54,0,0,1,1.55-1.55h0a1.54,1.54,0,0,1,1.54,1.55v4.39A1.54,1.54,0,0,1,35.37,21.6Z"/><path class="cls-6" d="M52.3,27.62h0a3.09,3.09,0,0,1-3.09-3.09v-8.8a3.09,3.09,0,0,1,3.09-3.09h0a3.09,3.09,0,0,1,3.09,3.09v8.8A3.09,3.09,0,0,1,52.3,27.62Z"/><path class="cls-7" d="M52.3,21.6h0a1.54,1.54,0,0,1-1.55-1.55V15.66a1.54,1.54,0,0,1,1.55-1.55h0a1.54,1.54,0,0,1,1.54,1.55v4.39A1.54,1.54,0,0,1,52.3,21.6Z"/></g></svg>